<?xml version="1.0" encoding="UTF-8"?>
<svg version="1.1" xmlns="http://www.w3.org/2000/svg" width="980" height="980">
<path d="M0 0 C323.4 0 646.8 0 980 0 C980 323.4 980 646.8 980 980 C656.6 980 333.2 980 0 980 C0 656.6 0 333.2 0 0 Z " fill="#FEFEFE" transform="translate(0,0)"/>
<path d="M0 0 C1.03930664 0.3261731 1.03930664 0.3261731 2.09960938 0.65893555 C15.3475569 4.8787694 28.32163953 11.03502314 39 20 C39.84691406 20.70898438 40.69382812 21.41796875 41.56640625 22.1484375 C62.87250027 40.68961856 75.9091333 64.00555095 80 92 C80.81359128 106.20826228 80.53377749 120.18753931 77 134 C76.74476563 135.14855469 76.48953125 136.29710937 76.2265625 137.48046875 C72.70713541 151.76805119 65.10078717 164.55446853 56 176 C55.49210938 176.66 54.98421875 177.32 54.4609375 178 C53.36654888 179.38238563 52.19298777 180.70174861 51 182 C50.34 182 49.68 182 49 182 C48.73832031 182.59425781 48.47664062 183.18851563 48.20703125 183.80078125 C43.8251001 191.78468817 33.40644466 197.02097241 26 202 C32.64522265 204.55400726 39.36649896 206.8276337 46.125 209.0625 C47.18332031 209.41376953 48.24164062 209.76503906 49.33203125 210.12695312 C50.35941406 210.46791016 51.38679687 210.80886719 52.4453125 211.16015625 C53.91701904 211.65056396 53.91701904 211.65056396 55.41845703 212.15087891 C57.33336647 212.7807309 59.2581176 213.38082726 61.1875 213.96484375 C65.2676864 215.46657902 69.03932577 217.46259018 72.875 219.5 C73.70708984 219.94142334 74.53917969 220.38284668 75.39648438 220.83764648 C87.82691198 227.51320266 99.33083147 234.73514938 110 244 C111.22687243 245.02358948 112.45559954 246.04496737 113.6875 247.0625 C114.450625 247.701875 115.21375 248.34125 116 249 C112.2767596 252.9856402 108.39033021 255.93310505 103.8125 258.875 C102.46424695 259.75690079 101.11659061 260.6397145 99.76953125 261.5234375 C99.11936035 261.94850586 98.46918945 262.37357422 97.79931641 262.81152344 C95.50061993 264.32984833 93.24698938 265.90633694 91 267.5 C86.98013971 270.33715759 82.90845894 273.08708581 78.8125 275.8125 C78.17513916 276.23660156 77.53777832 276.66070312 76.88110352 277.09765625 C73.65600348 279.2409981 70.42715944 281.37856629 67.1953125 283.51171875 C60.45924164 287.96718967 53.81982462 292.520604 47.27148438 297.24780273 C42.43601559 300.7241458 37.50241798 304.03600392 32.53515625 307.3203125 C27.41050613 310.71193779 22.36303978 314.20228065 17.3203125 317.71484375 C13.70677848 320.21693901 10.04105704 322.63832845 6.375 325.0625 C1.98489279 327.96681032 -2.32992064 330.93001836 -6.5625 334.0625 C-10.74716478 337.14296538 -15.01622486 340.0493309 -19.375 342.875 C-20.25007202 343.4474646 -20.25007202 343.4474646 -21.14282227 344.03149414 C-27.5287374 348.12639891 -27.5287374 348.12639891 -31 349 C-33.0703125 348.12890625 -33.0703125 348.12890625 -35.125 346.5625 C-38.37610699 344.1360106 -41.68302519 341.89611227 -45.125 339.75 C-50.82953242 336.14380144 -56.35783702 332.32224938 -61.875 328.4375 C-70.4344422 322.44421186 -79.06689882 316.57891451 -87.77563477 310.80517578 C-93.5117495 307.00009003 -99.19695555 303.13596592 -104.84375 299.19921875 C-109.16863656 296.18571487 -113.51438358 293.20293398 -117.85986328 290.21923828 C-121.18850453 287.93341832 -124.51534257 285.64515356 -127.8359375 283.34765625 C-134.48313437 278.75395481 -141.16124588 274.21467749 -147.89501953 269.74853516 C-162.31558033 260.18211412 -162.31558033 260.18211412 -169.3125 255.3125 C-169.89918457 254.91474365 -170.48586914 254.5169873 -171.09033203 254.10717773 C-172.67578125 252.98828125 -172.67578125 252.98828125 -175 251 C-175 248 -175 248 -173.4453125 246.16015625 C-157.59113961 231.82734339 -138.09213327 220.23737575 -118 213 C-116.14218717 212.19587206 -114.28772941 211.38392645 -112.4375 210.5625 C-103.35384005 206.75842921 -93.93227362 203.65663075 -84 204 C-84 203.34 -84 202.68 -84 202 C-84.72832031 201.73316406 -85.45664062 201.46632813 -86.20703125 201.19140625 C-94.77356792 197.53714935 -102.61186531 190.67356198 -109 184 C-109 183.34 -109 182.68 -109 182 C-109.55171875 181.80792969 -110.1034375 181.61585938 -110.671875 181.41796875 C-114.02098776 179.37815679 -116.00069982 176.44819866 -118.25 173.3125 C-118.73235107 172.64186523 -119.21470215 171.97123047 -119.71166992 171.28027344 C-126.56593993 161.55309909 -131.71499444 151.71432971 -135.375 140.375 C-135.61387939 139.63604492 -135.85275879 138.89708984 -136.09887695 138.13574219 C-142.63478476 116.45819635 -142.24934775 92.37480949 -135 71 C-134.77006348 70.30986816 -134.54012695 69.61973633 -134.30322266 68.90869141 C-125.08713558 42.00397861 -104.93800928 20.43902841 -80.0625 7.25 C-78.38824108 6.47088941 -76.69887361 5.72386789 -75 5 C-73.82179688 4.49726563 -72.64359375 3.99453125 -71.4296875 3.4765625 C-49.07711546 -5.67641834 -23.05883117 -7.77293181 0 0 Z " fill="#010101" transform="translate(520,146)"/>
<path d="M0 0 C12.5125904 3.70393525 24.95111776 7.55383489 36.94921875 12.71484375 C45.15727514 16.17252691 53.50717654 19.32942459 62.0625 21.8125 C69.42032653 23.98849882 76.49263619 26.86945367 83.60375977 29.73950195 C88.96234782 31.88523601 94.3032755 33.77491973 99.84936523 35.3762207 C106.7904278 37.38943615 113.49084374 40.17739781 120.1875 42.875 C125.58603539 45.04844535 130.99740836 47.18252194 136.4375 49.25 C137.07518311 49.4960498 137.71286621 49.74209961 138.36987305 49.99560547 C142.86240835 51.68973264 147.335049 52.90479556 152 54 C152 54.66 152 55.32 152 56 C152.53625 56.07476563 153.0725 56.14953125 153.625 56.2265625 C160.11600771 57.31551445 165.97161358 59.37574305 172.078125 61.74316406 C177.31471649 63.76934522 182.58200792 65.51526178 188 67 C188 67.66 188 68.32 188 69 C189.8871875 69.37125 189.8871875 69.37125 191.8125 69.75 C197.41397533 71.00535382 202.64058053 72.96668395 208 75 C211.0809417 76.15231508 214.165 77.29609903 217.25 78.4375 C218.06114258 78.73825439 218.87228516 79.03900879 219.70800781 79.34887695 C226.18821152 81.73676116 232.71567462 83.93830889 239.2890625 86.0546875 C242 87 242 87 243 88 C243.09666765 89.44914375 243.12371805 90.90299105 243.12304783 92.35535526 C243.12503888 93.30134651 243.12702993 94.24733776 243.12908131 95.22199541 C243.12616847 96.27352956 243.12325563 97.32506371 243.12025452 98.40846252 C243.12153615 100.0697082 243.12153615 100.0697082 243.12284368 101.76451439 C243.12450173 105.50651846 243.11897182 109.24847852 243.11352539 112.99047852 C243.11324356 115.66054384 243.11335705 118.3306064 243.1139679 121.00067139 C243.11449332 126.76506068 243.11134457 132.52943869 243.10573006 138.29382515 C243.09761759 146.62825316 243.0950001 154.96267568 243.09374207 163.29710721 C243.09155115 176.81778486 243.08488998 190.33845648 243.07543945 203.85913086 C243.06626636 216.99650034 243.05918503 230.1338682 243.05493164 243.27124023 C243.05466892 244.08045331 243.05440619 244.88966639 243.05413551 245.72340108 C243.05283051 249.78281374 243.05156679 253.84222642 243.05032361 257.9016391 C243.03994975 291.6010971 243.02233036 325.30054781 243 359 C242.39490601 358.79789413 241.78981201 358.59578827 241.16638184 358.38755798 C240.36575317 358.12036453 239.56512451 357.85317108 238.74023438 357.57788086 C237.94951538 357.31389999 237.15879639 357.04991913 236.34411621 356.77793884 C234.2842336 356.09432824 232.22152511 355.42100072 230.15625 354.75390625 C224.0543096 352.76556029 218.12782308 350.70018963 212.3125 347.96875 C208.31571717 346.29442206 204.14583521 345.16652272 199.99609375 343.93359375 C196.54377793 342.85783954 193.3128681 341.44561517 190 340 C188.23350216 339.40366633 186.46199293 338.82210428 184.6875 338.25 C179.50119634 336.55783118 174.44325061 334.63509574 169.375 332.625 C163.30465716 330.22320839 157.20916548 328.01548738 151 326 C144.08199363 323.75426582 137.32047697 321.22661252 130.56103516 318.54394531 C124.50073581 316.15393058 118.37622649 314.06521456 112.18359375 312.046875 C109.12797411 311.04208228 106.1249119 309.95807485 103.125 308.80078125 C100.24558547 307.71570776 97.34038886 306.70804687 94.4375 305.6875 C89.4851401 303.92970169 84.61465446 302.05424491 79.75 300.0625 C71.95048097 296.87753367 63.98211003 294.27768407 55.97998047 291.65527344 C49.17408994 289.40286774 42.51713298 286.81620165 35.875 284.125 C29.07553526 281.37023294 22.1960648 278.89558146 15.265625 276.4921875 C10.16109055 274.70653534 5.08226047 272.84809472 0 271 C0 245.92 0 220.84 0 195 C3.96 194.01 7.92 193.02 12 192 C31.57822985 185.451497 43.47030252 173.12115868 54 156 C54.35932617 155.42378906 54.71865234 154.84757813 55.08886719 154.25390625 C57.61742876 150.04675967 59.229169 145.91501414 60.625 141.25 C60.82867187 140.610625 61.03234375 139.97125 61.2421875 139.3125 C68.13533138 116.86559557 66.96625561 92.61452876 56.6875 71.4375 C53.43816768 65.36451209 49.50008155 60.18669193 45 55 C44.07574219 53.74896484 44.07574219 53.74896484 43.1328125 52.47265625 C33.77691848 41.62598791 17.319213 36.85894416 3.703125 35.359375 C1 35 1 35 0 34 C-0.08847743 31.47905924 -0.11527301 28.98569107 -0.09765625 26.46484375 C-0.0962413 25.71159317 -0.09482635 24.95834259 -0.09336853 24.18226624 C-0.08775376 21.7673044 -0.07519883 19.35243399 -0.0625 16.9375 C-0.0574869 15.30403779 -0.05292366 13.67057414 -0.04882812 12.03710938 C-0.03777954 8.02470415 -0.02050506 4.01236759 0 0 Z " fill="#010101" transform="translate(230,479)"/>
<path d="M0 0 C0 11.55 0 23.1 0 35 C-5.61 35.66 -11.22 36.32 -17 37 C-35.39053692 43.24921157 -48.48955758 55.6782255 -57.46875 72.80078125 C-68.00025006 96.0150329 -67.56945766 121.26737903 -58.92871094 144.88208008 C-52.24524956 162.28857847 -40.01087598 178.92742987 -23.375 187.8125 C-14.77591925 191.76574816 -14.77591925 191.76574816 0 195 C0 220.08 0 245.16 0 271 C-6.6 273.31 -13.2 275.62 -20 278 C-23.82993646 279.51198267 -23.82993646 279.51198267 -27.64550781 281.05957031 C-30.42281191 282.16887925 -33.2280354 283.17263086 -36.046875 284.171875 C-37.90481689 284.83243896 -37.90481689 284.83243896 -39.80029297 285.50634766 C-40.47445251 285.74589172 -41.14861206 285.98543579 -41.84320068 286.23223877 C-45.7701765 287.63013414 -49.69356174 289.03804721 -53.6171875 290.4453125 C-54.4518454 290.74466705 -55.2865033 291.04402161 -56.14645386 291.35244751 C-57.85742671 291.96617736 -59.5683742 292.57997794 -61.27929688 293.19384766 C-63.02042113 293.81843832 -64.76163315 294.44278435 -66.50292969 295.06689453 C-69.06204916 295.98414337 -71.62089646 296.90214791 -74.1796875 297.8203125 C-74.94755585 298.09537628 -75.71542419 298.37044006 -76.50656128 298.65383911 C-80.71674501 300.16560571 -84.91359842 301.70811456 -89.09976196 303.28515625 C-93.97677003 305.11982047 -98.87084167 306.90899797 -103.76171875 308.70629883 C-105.08035152 309.19123315 -106.39871419 309.67690259 -107.71679688 310.16333008 C-115.2732422 312.9517037 -122.84073215 315.66522261 -130.50830078 318.13745117 C-132.79482684 318.92897543 -134.94265864 319.83453826 -137.125 320.875 C-141.57067113 322.93992921 -146.15831383 324.42431632 -150.8125 325.9375 C-155.84369007 327.57385794 -160.77724302 329.24198693 -165.625 331.375 C-172.64422601 334.42126522 -179.92508751 336.70168297 -187.19775391 339.05810547 C-193.57670337 341.13731672 -199.79241021 343.45871378 -206 346 C-217.20314541 350.39681511 -228.56380765 354.2610106 -240 358 C-240.99 358.33 -241.98 358.66 -243 359 C-243 269.57 -243 180.14 -243 88 C-227.19010417 81.67604167 -227.19010417 81.67604167 -220.41015625 79.7578125 C-217.77282758 78.92857139 -215.29017667 77.9037281 -212.75 76.8125 C-199.14389669 71.00374051 -185.03921583 66.34412903 -171.06420898 61.51098633 C-166.00336604 59.7456938 -161.02008039 57.84869518 -156.0625 55.8125 C-151.68329754 54.02228955 -147.35477895 52.44502777 -142.8125 51.125 C-137.27819568 49.49567926 -132.01546964 47.44135497 -126.6875 45.25 C-118.03425646 41.69642134 -109.26214683 38.69125568 -100.37084961 35.79223633 C-94.48349006 33.86160241 -88.77130145 31.76154093 -83.09375 29.2734375 C-78.01543589 27.18312134 -72.81374618 25.44751205 -67.62402344 23.65600586 C-62.38580788 21.84439911 -57.17990979 19.97188245 -52 18 C-46.03376422 15.73195079 -40.03002976 13.59235457 -34 11.5 C-19.50212016 6.48594066 -19.50212016 6.48594066 -5.24609375 0.83203125 C-3 0 -3 0 0 0 Z " fill="#010101" transform="translate(750,479)"/>
<path d="M0 0 C0 0.66 0 1.32 0 2 C1.0209375 2.35384766 1.0209375 2.35384766 2.0625 2.71484375 C5.65143508 4.28500285 8.77771758 6.36319745 12 8.5625 C12.65718018 9.00577637 13.31436035 9.44905273 13.99145508 9.90576172 C19.32992177 13.51615125 24.62480409 17.18910394 29.9140625 20.87109375 C32.77538891 22.84504678 35.66090715 24.77342405 38.5625 26.6875 C43.98441755 30.2806812 49.30616849 34.00625792 54.625 37.75 C61.74751603 42.76130119 68.93388637 47.65425178 76.20068359 52.45336914 C81.95404235 56.26723006 87.60979685 60.20862404 93.25 64.1875 C98.82539535 68.1196377 104.41634388 71.98545645 110.1875 75.625 C116.21474276 79.43728429 122.02920717 83.50240657 127.83813477 87.63818359 C131.7285469 90.40518706 135.63701671 93.12419124 139.625 95.75 C146.72286095 100.42925743 153.67448687 105.3187435 160.64111328 110.19042969 C166.3814416 114.19957887 172.16106768 118.13617206 178 122 C179.29354365 122.86502635 180.58653444 123.73088013 181.87890625 124.59765625 C184.4019177 126.28858937 186.93145291 127.96919358 189.46484375 129.64453125 C191.52515724 131.00810987 193.55190642 132.39229878 195.56640625 133.82421875 C197.77537855 135.41865067 197.77537855 135.41865067 201 137 C206.08066466 135.74585395 210.41269452 132.21681798 214.6875 129.3125 C215.49840088 128.76650146 216.30930176 128.22050293 217.14477539 127.65795898 C221.86432444 124.47260668 226.55356216 121.24769744 231.203125 117.9609375 C244.29759087 108.7801807 257.5929152 99.89174107 270.92578125 91.0625 C282.19244077 83.58256007 293.38111945 75.97519293 304.4375 68.1875 C307.73806804 65.86466872 311.07435814 63.60631527 314.4375 61.375 C319.73894652 57.8565817 324.9998354 54.28195656 330.25 50.6875 C331.05550293 50.13666748 331.86100586 49.58583496 332.69091797 49.01831055 C336.70782566 46.268064 340.71548623 43.50569626 344.70703125 40.71875 C345.44211914 40.20739502 346.17720703 39.69604004 346.93457031 39.16918945 C348.32600471 38.20032583 349.71479858 37.22765607 351.10058594 36.25073242 C355.77637213 33 355.77637213 33 358 33 C358 32.34 358 31.68 358 31 C359.73046875 29.80859375 359.73046875 29.80859375 362.1875 28.4375 C366.89734089 25.70552769 371.36195849 22.73270253 375.81787109 19.60595703 C380.73435107 16.16341739 385.72579706 12.84254665 390.74023438 9.54467773 C394.80333184 6.85495411 398.67485419 4.0290324 402.38671875 0.86328125 C404 0 404 0 405.91796875 0.1328125 C408.56408875 1.23494878 410.4210227 2.72824528 412.625 4.5625 C413.50929688 5.28953125 414.39359375 6.0165625 415.3046875 6.765625 C416.63886719 7.87164062 416.63886719 7.87164062 418 9 C419.58030036 10.27460291 421.16361104 11.54548308 422.75 12.8125 C423.57113281 13.46992188 424.39226562 14.12734375 425.23828125 14.8046875 C428.45901246 17.36487271 431.69794822 19.90120859 434.9375 22.4375 C440.19035887 26.55003833 445.36963619 30.74139925 450.51171875 34.9921875 C453.47303825 37.38169805 456.52491872 39.61973241 459.63671875 41.80859375 C460.08660156 42.20175781 460.53648437 42.59492188 461 43 C461 43.66 461 44.32 461 45 C457.22952286 46.41761591 453.45855176 47.83391346 449.6875 49.25 C448.63498047 49.64574219 447.58246094 50.04148437 446.49804688 50.44921875 C439.68032524 53.00848656 432.84806843 55.52318643 426 58 C424.26033209 58.63127738 422.5207484 59.26278692 420.78125 59.89453125 C419.49226807 60.36258179 419.49226807 60.36258179 418.17724609 60.84008789 C417.29375488 61.16098389 416.41026367 61.48187988 415.5 61.8125 C414.0761499 62.32961548 414.0761499 62.32961548 412.62353516 62.85717773 C407.30792335 64.78992603 401.99808624 66.73717665 396.69458008 68.70288086 C388.44286911 71.76090363 380.16287675 74.72397826 371.84716797 77.60375977 C365.26601893 79.88625101 358.75402598 82.31883588 352.2578125 84.83203125 C344.0162301 88.01740846 335.78063549 91.14729175 327.375 93.875 C318.84293108 96.65134615 310.44596962 99.75609284 302.04052734 102.89257812 C292.54428114 106.43502772 283.02722752 109.91686112 273.5 113.375 C272.80389618 113.62775696 272.10779236 113.88051392 271.39059448 114.14093018 C269.37503389 114.87274878 267.359398 115.60435968 265.34375 116.3359375 C264.38819214 116.68289673 264.38819214 116.68289673 263.41333008 117.03686523 C260.55612511 118.07398821 257.69809432 119.10867765 254.83813477 120.13818359 C249.821565 121.94785867 244.86462478 123.83499746 239.9375 125.875 C233.48165151 128.51180058 226.92886847 130.74244978 220.29101562 132.87475586 C216.34341079 134.15789892 212.64818625 135.55301536 208.9375 137.4375 C203.77414141 139.84443309 198.90644101 138.93405538 193.59106445 137.22583008 C191.09763471 136.26589103 188.6420445 135.2427781 186.1875 134.1875 C184.4242629 133.45441413 182.65994183 132.72392987 180.89453125 131.99609375 C180.05229004 131.64788574 179.21004883 131.29967773 178.34228516 130.94091797 C174.47660864 129.38803937 170.53192912 128.12008859 166.56640625 126.8515625 C164.10026581 126.03326932 161.71551601 125.11188137 159.3125 124.125 C152.67261741 121.40723104 145.88416425 119.10545893 139.11328125 116.73925781 C130.43657099 113.70401305 121.81650294 110.56150114 113.24609375 107.23828125 C108.86559468 105.56726055 104.45074884 104.00192437 100.03125 102.4375 C96.1256948 101.05114674 92.23413522 99.62748407 88.34204102 98.20385742 C79.6284655 95.01768132 70.89473502 91.90331391 62.125 88.875 C40.42987204 81.37517939 40.42987204 81.37517939 31.59765625 77.51171875 C27.59855428 75.83131434 23.56077489 74.46183258 19.4375 73.125 C-0.32587569 66.61616443 -0.32587569 66.61616443 -9.75 62.5625 C-14.57739538 60.50910328 -19.45358262 58.80732725 -24.4375 57.1875 C-31.53582719 54.88016038 -38.52858965 52.35400618 -45.5 49.6875 C-46.41450928 49.33776123 -47.32901855 48.98802246 -48.27124023 48.62768555 C-54.6892214 46.1553893 -54.6892214 46.1553893 -57 45 C-55.68307321 41.04921962 -53.14617638 39.53756792 -49.9375 37.125 C-48.65912914 36.14326309 -47.38182768 35.16013245 -46.10546875 34.17578125 C-45.43435059 33.65967285 -44.76323242 33.14356445 -44.07177734 32.61181641 C-40.58653397 29.90034142 -37.16949136 27.1061223 -33.75 24.3125 C-32.39857851 23.21076451 -31.0470197 22.10919744 -29.6953125 21.0078125 C-29.06141602 20.4912207 -28.42751953 19.97462891 -27.77441406 19.44238281 C-24.63681942 16.89189999 -21.47847573 14.36768117 -18.31640625 11.84765625 C-16.63351132 10.50531341 -14.95430454 9.15834268 -13.27734375 7.80859375 C-12.38144531 7.08800781 -11.48554688 6.36742187 -10.5625 5.625 C-9.75941406 4.97789062 -8.95632813 4.33078125 -8.12890625 3.6640625 C-3.44131455 0 -3.44131455 0 0 0 Z " fill="#030303" transform="translate(288,398)"/>
<path d="M0 0 C4.9674822 2.84997638 8.92022349 5.97200559 12.5 10.4375 C13.28117188 11.40429688 13.28117188 11.40429688 14.078125 12.390625 C24.9436593 27.20726268 24.96353028 43.66061399 23.09375 61.26171875 C21.06153253 71.48965535 14.08339345 80.62294315 5.5 86.4375 C-1.05901667 90.2957451 -8.37290993 90.5131133 -15.734375 88.96875 C-24.80794751 85.92002964 -31.29953021 80.3102112 -36.5 72.4375 C-37.20125 71.53 -37.9025 70.6225 -38.625 69.6875 C-46.05436931 56.80992654 -47.46129726 40.18540896 -44.81640625 25.69140625 C-41.6631606 14.58308444 -35.87659269 6.23756809 -26.5 -0.5625 C-18.42413851 -4.68145946 -7.9894112 -3.77809483 0 0 Z " fill="#030303" transform="translate(763.5,550.5625)"/>
<path d="M0 0 C9.14196648 6.43384355 14.26878972 15.52959626 16.80737305 26.40942383 C17.44397659 30.07590589 17.47191383 33.69337254 17.42578125 37.40625 C17.41901367 38.19708984 17.41224609 38.98792969 17.40527344 39.80273438 C17.30344882 45.56648113 16.87540715 50.99281387 15.17578125 56.53125 C14.80839844 57.73587891 14.80839844 57.73587891 14.43359375 58.96484375 C10.57993891 69.89490016 3.00535624 80.00330302 -7.09375 85.84375 C-14.68127579 89.37397202 -22.80498219 90.14972445 -30.81640625 87.56640625 C-40.85310272 82.77047788 -46.34101535 73.98845015 -50.1328125 63.8203125 C-54.05638631 50.83040146 -54.01798443 32.6679435 -47.82421875 20.53125 C-47.40011719 19.66886719 -46.97601563 18.80648437 -46.5390625 17.91796875 C-41.65713758 8.95644084 -34.03983743 0.15593343 -24.0390625 -3.0390625 C-15.64831188 -4.66689772 -7.4327492 -4.37936123 0 0 Z " fill="#020202" transform="translate(244.82421875,551.46875)"/>
<path d="M0 0 C0.66 0.33 1.32 0.66 2 1 C0.02 2.65 -1.96 4.3 -4 6 C-3.505 8.475 -3.505 8.475 -3 11 C-6.1320034 12.38783654 -9.28216431 13.72866367 -12.4375 15.0625 C-13.31599609 15.45244141 -14.19449219 15.84238281 -15.09960938 16.24414062 C-23.50635661 19.74953708 -29.62743049 19.24746398 -38.0625 15.9375 C-39.00222656 15.57527344 -39.94195312 15.21304688 -40.91015625 14.83984375 C-41.59980469 14.56269531 -42.28945313 14.28554688 -43 14 C-42.360625 13.87625 -41.72125 13.7525 -41.0625 13.625 C-40.381875 13.41875 -39.70125 13.2125 -39 13 C-38.67 12.34 -38.34 11.68 -38 11 C-36.04274906 11.93948045 -34.16227738 12.8923278 -32.3515625 14.09375 C-30.32557091 15.4525357 -30.32557091 15.4525357 -27 17 C-23.52729883 15.98012068 -20.70155942 14.29696737 -17.71484375 12.28515625 C-16.93689453 11.76373047 -16.15894531 11.24230469 -15.35742188 10.70507812 C-14.55884766 10.16302734 -13.76027344 9.62097656 -12.9375 9.0625 C-11.73383789 8.25522461 -11.73383789 8.25522461 -10.50585938 7.43164062 C-6.93893445 5.03099655 -3.42457518 2.6012168 0 0 Z " fill="#0D0D0D" transform="translate(516,518)"/>
<path d="M0 0 C1.75129657 1.10210905 3.50098464 2.20677432 5.25 3.3125 C6.22453125 3.92738281 7.1990625 4.54226563 8.203125 5.17578125 C9.12609375 5.77777344 10.0490625 6.37976563 11 7 C11.75796875 7.48855469 12.5159375 7.97710938 13.296875 8.48046875 C15.28496457 10.25424591 15.64123778 11.39897392 16 14 C8.26534904 12.86299135 1.26030749 10.89288848 -6 8 C-5.01 7.34 -4.02 6.68 -3 6 C-1.2912354 4.62485459 -1.2912354 4.62485459 0 3 C0 2.01 0 1.02 0 0 Z " fill="#171717" transform="translate(463,518)"/>
<path d="M0 0 C1.95725094 0.93948045 3.83772262 1.8923278 5.6484375 3.09375 C7.67442909 4.4525357 7.67442909 4.4525357 11 6 C13.6807393 5.49439113 13.6807393 5.49439113 16 4 C17.66666667 3.33333333 19.33333333 2.66666667 21 2 C21.33 2.99 21.66 3.98 22 5 C16.271006 8.04733723 12.31339136 8.50649213 6 7 C2.2744297 5.80473294 -1.37008156 4.45875227 -5 3 C-4.360625 2.87625 -3.72125 2.7525 -3.0625 2.625 C-2.0415625 2.315625 -2.0415625 2.315625 -1 2 C-0.67 1.34 -0.34 0.68 0 0 Z " fill="#515151" transform="translate(478,529)"/>
<path d="M0 0 C3.00562758 1.65669668 6.0037099 3.3264868 9 5 C10.010625 5.556875 11.02125 6.11375 12.0625 6.6875 C12.701875 7.120625 13.34125 7.55375 14 8 C14 8.66 14 9.32 14 10 C10.04 10.66 6.08 11.32 2 12 C2 11.01 2 10.02 2 9 C3.32 9.33 4.64 9.66 6 10 C5.24415719 6.81031108 5.24415719 6.81031108 2.4375 5 C1.633125 4.34 0.82875 3.68 0 3 C0 2.01 0 1.02 0 0 Z " fill="#DADADA" transform="translate(422,340)"/>
<path d="M0 0 C2.31 0.33 4.62 0.66 7 1 C7.33 1.99 7.66 2.98 8 4 C10.31 4 12.62 4 15 4 C15.625 6.375 15.625 6.375 16 9 C15.34 9.66 14.68 10.32 14 11 C12.2267539 9.73253547 10.45649025 8.46089765 8.6875 7.1875 C7.70136719 6.47980469 6.71523438 5.77210938 5.69921875 5.04296875 C3.59942813 3.45369163 1.77965031 1.92542371 0 0 Z " fill="#E6E6E6" transform="translate(368,453)"/>
<path d="M0 0 C1.65 0.33 3.3 0.66 5 1 C1.0299782 5.21814817 -3.30840284 8.61227103 -8 12 C-7.45276317 8.62537285 -6.9451 6.91765 -5 4 C-4.319375 3.835 -3.63875 3.67 -2.9375 3.5 C-2.298125 3.335 -1.65875 3.17 -1 3 C-0.67 2.01 -0.34 1.02 0 0 Z " fill="#E2E2E2" transform="translate(266,408)"/>
<path d="M0 0 C0.66 0.33 1.32 0.66 2 1 C0.47005208 2.23697917 -1.05989583 3.47395833 -2.58984375 4.7109375 C-4.13266437 5.9666391 -4.13266437 5.9666391 -5 8 C-7.30965848 9.05352843 -9.6429774 10.05719096 -12 11 C-12 11.66 -12 12.32 -12 13 C-13.32 13.33 -14.64 13.66 -16 14 C-16 13.01 -16 12.02 -16 11 C-13.515625 9.0625 -13.515625 9.0625 -10.25 7 C-6.7419686 4.76299447 -3.28727316 2.55322187 0 0 Z " fill="#D4D4D4" transform="translate(557,449)"/>
<path d="M0 0 C0 4.46153846 0 4.46153846 -1 7 C-2.63260714 8.37482707 -4.30225062 9.70647667 -6 11 C-7.76323505 13.12603185 -7.76323505 13.12603185 -9 15 C-9.99 14.01 -10.98 13.02 -12 12 C-11.38511719 11.46890625 -10.77023438 10.9378125 -10.13671875 10.390625 C-9.32847656 9.68421875 -8.52023438 8.9778125 -7.6875 8.25 C-6.48673828 7.20585938 -6.48673828 7.20585938 -5.26171875 6.140625 C-3.22034399 4.20854665 -1.60107149 2.30056874 0 0 Z " fill="#DCDCDC" transform="translate(252,623)"/>
<path d="M0 0 C1.65 0.33 3.3 0.66 5 1 C4.29875 1.680625 3.5975 2.36125 2.875 3.0625 C0.14570239 5.77620162 -2.31354441 8.68054724 -4.765625 11.64453125 C-5.17296875 12.09183594 -5.5803125 12.53914062 -6 13 C-6.33 13 -6.66 13 -7 13 C-7.20086443 9.28400809 -7.1519437 8.22791555 -5 5 C-3.9790625 4.505 -3.9790625 4.505 -2.9375 4 C-0.64657009 3.10301684 -0.64657009 3.10301684 0 0 Z " fill="#DCDCDC" transform="translate(209,551)"/>
<path d="M0 0 C0.66 0.66 1.32 1.32 2 2 C-0.625 4.125 -0.625 4.125 -4 6 C-7.94816287 5.30326538 -10.45319453 4.11276225 -13 1 C-9.66666667 1 -6.33333333 1 -3 1 C-2.01 0.67 -1.02 0.34 0 0 Z " fill="#E6E6E6" transform="translate(495,530)"/>
<path d="M0 0 C0.66 0.99 1.32 1.98 2 3 C-0.1385485 5.1385485 -1.13275314 5.42655063 -4 6 C-4 7.98 -4 9.96 -4 12 C-5.32 11.34 -6.64 10.68 -8 10 C-8 7 -8 7 -6.25 5.17578125 C-5.5075 4.56089844 -4.765 3.94601562 -4 3.3125 C-3.2575 2.68988281 -2.515 2.06726563 -1.75 1.42578125 C-1.1725 0.95527344 -0.595 0.48476563 0 0 Z " fill="#2C2C2C" transform="translate(353,387)"/>
<path d="M0 0 C0.66 0.33 1.32 0.66 2 1 C1.67 1.66 1.34 2.32 1 3 C2.32 2.34 3.64 1.68 5 1 C5 1.99 5 2.98 5 4 C3.41701974 4.4803318 1.83360022 4.95921612 0.25 5.4375 C-1.07257812 5.83775391 -1.07257812 5.83775391 -2.421875 6.24609375 C-4.60565835 6.88468494 -6.78835498 7.46775833 -9 8 C-8.9375 6.1875 -8.9375 6.1875 -8 4 C-4.5 2.3125 -4.5 2.3125 -1 1 C-0.67 0.67 -0.34 0.34 0 0 Z " fill="#E7E7E7" transform="translate(601,528)"/>
<path d="M0 0 C-2.25693432 2.25693432 -4.04141517 2.87292007 -7 4 C-7.928125 4.556875 -7.928125 4.556875 -8.875 5.125 C-11.92936174 6.38267836 -14.73746159 6.12548225 -18 6 C-15.37972564 3.37972564 -12.42076703 2.51801127 -9 1.3125 C-8.03707031 0.95575195 -8.03707031 0.95575195 -7.0546875 0.59179688 C-2.2465087 -1.12325435 -2.2465087 -1.12325435 0 0 Z " fill="#D4D4D4" transform="translate(650,480)"/>
<path d="M0 0 C6.75 1.75 6.75 1.75 9 4 C10.65204456 4.70211894 12.31923769 5.36971413 14 6 C14.66 6.33 15.32 6.66 16 7 C15.67 7.99 15.34 8.98 15 10 C11.13518578 8.61423779 8.03192572 6.81080359 4.6875 4.4375 C3.80449219 3.81746094 2.92148437 3.19742187 2.01171875 2.55859375 C1.34785156 2.04425781 0.68398438 1.52992188 0 1 C0 0.67 0 0.34 0 0 Z " fill="#D5D5D5" transform="translate(384,464)"/>
<path d="M0 0 C1 3 1 3 0.25 5 C-1.00250715 7.00401144 -2.26637988 8.40506949 -4 10 C-6.04483171 11.96303844 -7.39557874 13.59336812 -9 16 C-9.99 15.67 -10.98 15.34 -12 15 C-11.67 14.34 -11.34 13.68 -11 13 C-10.34 13 -9.68 13 -9 13 C-8.73316406 12.41476562 -8.46632813 11.82953125 -8.19140625 11.2265625 C-6.98062783 8.96379627 -5.6463301 7.28116429 -3.9375 5.375 C-2.33621517 3.5818742 -1.07671842 2.15343684 0 0 Z " fill="#D5D5D5" transform="translate(580,315)"/>
<path d="M0 0 C-1.98 0.99 -1.98 0.99 -4 2 C-3.67 2.66 -3.34 3.32 -3 4 C-3.33 4.66 -3.66 5.32 -4 6 C-7.96 5.67 -11.92 5.34 -16 5 C-13.13879225 3.09252817 -10.64745007 1.99646294 -7.4375 0.8125 C-6.46683594 0.44769531 -5.49617187 0.08289063 -4.49609375 -0.29296875 C-2 -1 -2 -1 0 0 Z " fill="#CDCDCD" transform="translate(526,832)"/>
<path d="M0 0 C0 2 0 2 -1.375 3.5625 C-3 5 -3 5 -5 6 C-5.598125 5.67 -6.19625 5.34 -6.8125 5 C-9.59642818 3.72734712 -11.10918261 4.19699517 -14 5 C-10.63156097 2.05261585 -4.40469071 -2.20234535 0 0 Z " fill="#D6D6D6" transform="translate(718,762)"/>
<path d="M0 0 C0.33 0.99 0.66 1.98 1 3 C0.071875 3.680625 0.071875 3.680625 -0.875 4.375 C-3.05919833 5.97108919 -3.05919833 5.97108919 -5 8 C-5.66 8.66 -6.32 9.32 -7 10 C-7.99 9.34 -8.98 8.68 -10 8 C-8.71064081 6.85157077 -7.41843421 5.70633773 -6.125 4.5625 C-5.04605469 3.60537109 -5.04605469 3.60537109 -3.9453125 2.62890625 C-2 1 -2 1 0 0 Z " fill="#191919" transform="translate(279,403)"/>
<path d="M0 0 C4.62 0 9.24 0 14 0 C14.33 0.66 14.66 1.32 15 2 C14.34 2 13.68 2 13 2 C13 2.66 13 3.32 13 4 C11.39431334 3.71682074 9.79047953 3.42312209 8.1875 3.125 C7.29417969 2.96257812 6.40085937 2.80015625 5.48046875 2.6328125 C3 2 3 2 0 0 Z " fill="#D4D4D4" transform="translate(554,351)"/>
<path d="M0 0 C0.33 0.66 0.66 1.32 1 2 C0.34 2.66 -0.32 3.32 -1 4 C-1.33 4.66 -1.66 5.32 -2 6 C-2.598125 6.144375 -3.19625 6.28875 -3.8125 6.4375 C-6.09785109 6.87125476 -6.09785109 6.87125476 -7.9375 8.5 C-10.29858218 10.21715068 -12.13690678 10.60234816 -15 11 C-10.22276042 7.01896702 -5.11066313 3.53280791 0 0 Z " fill="#2A2A2A" transform="translate(537,504)"/>
<path d="M0 0 C1.9078584 3.1749094 2.1609041 5.10585211 1.625 8.75 C1.51414062 9.54921875 1.40328125 10.3484375 1.2890625 11.171875 C1.19367187 11.77515625 1.09828125 12.3784375 1 13 C-1.2344598 8.96707255 -1.54496743 5.55032566 -2 1 C-1.34 0.67 -0.68 0.34 0 0 Z " fill="#E6E6E6" transform="translate(598,219)"/>
<path d="M0 0 C-1.11375 0.433125 -2.2275 0.86625 -3.375 1.3125 C-7.17512334 2.69911119 -7.17512334 2.69911119 -9 6 C-11.31 5.67 -13.62 5.34 -16 5 C-13.50448842 2.50448842 -11.33923374 1.92424008 -8 0.8125 C-6.9275 0.44769531 -5.855 0.08289063 -4.75 -0.29296875 C-2 -1 -2 -1 0 0 Z " fill="#CFCFCF" transform="translate(686,774)"/>
<path d="M0 0 C0.66 0.66 1.32 1.32 2 2 C-0.10148204 5.98175544 -2.36905358 8.35039045 -6 11 C-6.66 10.34 -7.32 9.68 -8 9 C-7.50628906 8.51789062 -7.01257813 8.03578125 -6.50390625 7.5390625 C-5.86324219 6.90742187 -5.22257812 6.27578125 -4.5625 5.625 C-3.92441406 4.99851562 -3.28632813 4.37203125 -2.62890625 3.7265625 C-0.92117824 2.08276939 -0.92117824 2.08276939 0 0 Z " fill="#191919" transform="translate(275,648)"/>
<path d="M0 0 C4.90909091 2.91477273 4.90909091 2.91477273 6 6.1875 C4.35 5.8575 2.7 5.5275 1 5.1875 C1 4.5275 1 3.8675 1 3.1875 C-2.3 2.5275 -5.6 1.8675 -9 1.1875 C-7.68 0.8575 -6.36 0.5275 -5 0.1875 C-2 -0.8125 -2 -0.8125 0 0 Z " fill="#D3D3D3" transform="translate(381,529.8125)"/>
<path d="M0 0 C0.33 0.66 0.66 1.32 1 2 C1.94875 2.309375 2.8975 2.61875 3.875 2.9375 C6.84689902 3.94794567 8.06088831 4.62997461 10 7 C9.34 7 8.68 7 8 7 C7.67 7.66 7.34 8.32 7 9 C4.03 7.02 1.06 5.04 -2 3 C-1.34 2.01 -0.68 1.02 0 0 Z " fill="#242424" transform="translate(260,518)"/>
<path d="M0 0 C0.33 1.32 0.66 2.64 1 4 C0.34 4 -0.32 4 -1 4 C-1.33 4.66 -1.66 5.32 -2 6 C-4.2551922 8.2551922 -6.0047587 8.97723468 -9 10 C-9.99 10 -10.98 10 -12 10 C-8.04 6.7 -4.08 3.4 0 0 Z " fill="#242424" transform="translate(262,416)"/>
<path d="M0 0 C3.16115776 1.36983503 3.9927092 1.9890638 6 5 C3.525 6.485 3.525 6.485 1 8 C0.34 7.34 -0.32 6.68 -1 6 C-0.67 5.67 -0.34 5.34 0 5 C-0.66 4.34 -1.32 3.68 -2 3 C-1.34 3 -0.68 3 0 3 C0 2.01 0 1.02 0 0 Z " fill="#1A1A1A" transform="translate(630,391)"/>
<path d="M0 0 C-0.04125 0.78375 -0.0825 1.5675 -0.125 2.375 C-0.28728734 5.16116119 -0.28728734 5.16116119 2 7 C-4.625 6.25 -4.625 6.25 -8 4 C-2.25 0 -2.25 0 0 0 Z " fill="#DDDDDD" transform="translate(552,344)"/>
<path d="M0 0 C2.62002725 2.37050084 4.35819909 4.87276017 6 8 C6 8.99 6 9.98 6 11 C5.34 11 4.68 11 4 11 C3.34 10.01 2.68 9.02 2 8 C1.01 8 0.02 8 -1 8 C-0.67 5.36 -0.34 2.72 0 0 Z " fill="#D6D6D6" transform="translate(282,543)"/>
<path d="M0 0 C3.36591866 1.44253657 5.51047079 3.33264727 8 6 C3.51474352 5.343621 -0.66914029 4.29925791 -5 3 C-4.360625 2.87625 -3.72125 2.7525 -3.0625 2.625 C-2.0415625 2.315625 -2.0415625 2.315625 -1 2 C-0.67 1.34 -0.34 0.68 0 0 Z " fill="#333333" transform="translate(478,529)"/>
<path d="M0 0 C0 0.99 0 1.98 0 3 C-7.75 1.125 -7.75 1.125 -10 0 C-10 -0.66 -10 -1.32 -10 -2 C-5.82412255 -3.39195915 -3.86525224 -1.82323219 0 0 Z " fill="#E7E7E7" transform="translate(342,516)"/>
<path d="M0 0 C2.12046792 3.53411321 2.53199289 6.94393835 3 11 C1.68 10.67 0.36 10.34 -1 10 C-1.125 3.375 -1.125 3.375 0 0 Z " fill="#1D1D1D" transform="translate(593,213)"/>
<path d="M0 0 C-0.639375 0.45375 -1.27875 0.9075 -1.9375 1.375 C-4.09702406 2.83921726 -4.09702406 2.83921726 -5 5 C-5.99 5 -6.98 5 -8 5 C-8 4.34 -8 3.68 -8 3 C-9.98 3.33 -11.96 3.66 -14 4 C-11.68516093 1.68516093 -10.10977477 1.2391044 -7 0.3125 C-6.113125 0.04050781 -5.22625 -0.23148437 -4.3125 -0.51171875 C-2 -1 -2 -1 0 0 Z " fill="#C9C9C9" transform="translate(626,489)"/>
<path d="M0 0 C1.48280196 0.78483659 2.9611498 1.57809334 4.4375 2.375 C5.67306641 3.03628906 5.67306641 3.03628906 6.93359375 3.7109375 C9 5 9 5 10 7 C7 8 7 8 5 7.25 C2.97584769 5.98490481 1.49152327 4.86440408 0 3 C0 2.01 0 1.02 0 0 Z " fill="#E7E7E7" transform="translate(422,340)"/>
<path d="M0 0 C0.66 0.33 1.32 0.66 2 1 C-0.59726419 4.31872647 -2.98570203 4.33095034 -7 5 C-8.85801239 6.43691955 -8.85801239 6.43691955 -10 8 C-10 7.34 -10 6.68 -10 6 C-10.66 5.67 -11.32 5.34 -12 5 C-10.04578965 4.13644222 -8.08648653 3.28440066 -6.125 2.4375 C-5.03445313 1.96183594 -3.94390625 1.48617187 -2.8203125 0.99609375 C-1.88960937 0.66738281 -0.95890625 0.33867188 0 0 Z " fill="#D1D1D1" transform="translate(620,796)"/>
<path d="M0 0 C-1.7015625 0.6496875 -1.7015625 0.6496875 -3.4375 1.3125 C-5.2009375 2.1478125 -5.2009375 2.1478125 -7 3 C-7.33 3.99 -7.66 4.98 -8 6 C-10.64 5.67 -13.28 5.34 -16 5 C-13.13879225 3.09252817 -10.64745007 1.99646294 -7.4375 0.8125 C-6.46683594 0.44769531 -5.49617187 0.08289063 -4.49609375 -0.29296875 C-2 -1 -2 -1 0 0 Z " fill="#292929" transform="translate(549,553)"/>
<path d="M0 0 C2.97 0 5.94 0 9 0 C9.66 1.65 10.32 3.3 11 5 C6.69159287 3.92289822 3.36423277 2.96052484 0 0 Z " fill="#DDDDDD" transform="translate(431,551)"/>
<path d="M0 0 C2.31 0.33 4.62 0.66 7 1 C7 1.66 7 2.32 7 3 C8.32 3.66 9.64 4.32 11 5 C10.34 5.66 9.68 6.32 9 7 C7.4972763 6.02501855 5.99788037 5.04490611 4.5 4.0625 C3.6646875 3.51722656 2.829375 2.97195313 1.96875 2.41015625 C1.3190625 1.94480469 0.669375 1.47945313 0 1 C0 0.67 0 0.34 0 0 Z " fill="#222222" transform="translate(390,427)"/>
<path d="M0 0 C0.33 1.32 0.66 2.64 1 4 C-0.48117801 3.71872579 -1.95993249 3.42466268 -3.4375 3.125 C-4.26121094 2.96257813 -5.08492188 2.80015625 -5.93359375 2.6328125 C-6.61550781 2.42398438 -7.29742187 2.21515625 -8 2 C-8.33 1.34 -8.66 0.68 -9 0 C-5.93109813 -1.53445094 -3.29905734 -0.54984289 0 0 Z " fill="#0B0B0B" transform="translate(478,528)"/>
<path d="M0 0 C2.0088485 0.98210371 4.00787329 1.98440599 6 3 C6.9075 3.165 7.815 3.33 8.75 3.5 C11 4 11 4 13 7 C11.24719267 6.57388649 9.49782565 6.13360733 7.75 5.6875 C6.77546875 5.44386719 5.8009375 5.20023438 4.796875 4.94921875 C2.01024335 4.00347644 0.22695632 2.89291287 -2 1 C-1.34 0.67 -0.68 0.34 0 0 Z " fill="#C0C0C0" transform="translate(358,523)"/>
<path d="M0 0 C2.31 0 4.62 0 7 0 C4.24479785 2.95929119 1.53372712 5.03681826 -2 7 C-2.33 6.01 -2.66 5.02 -3 4 C-2.34 3.67 -1.68 3.34 -1 3 C-0.67 2.01 -0.34 1.02 0 0 Z " fill="#DFDFDF" transform="translate(568,478)"/>
<path d="M0 0 C1.33841672 0.31229724 2.67139075 0.64830932 4 1 C4.99 1 5.98 1 7 1 C4.64722731 3.72426311 2.37503669 4.8141763 -1 6 C-1.042721 4.33388095 -1.04063832 2.66617115 -1 1 C-0.67 0.67 -0.34 0.34 0 0 Z " fill="#ECECEC" transform="translate(369,370)"/>
<path d="M0 0 C1.175625 0.5259375 1.175625 0.5259375 2.375 1.0625 C3.674375 1.5265625 3.674375 1.5265625 5 2 C5.66 1.67 6.32 1.34 7 1 C8.32 2.32 9.64 3.64 11 5 C10.34 5.66 9.68 6.32 9 7 C7.4972763 6.02501855 5.99788037 5.04490611 4.5 4.0625 C3.6646875 3.51722656 2.829375 2.97195313 1.96875 2.41015625 C1.3190625 1.94480469 0.669375 1.47945313 0 1 C0 0.67 0 0.34 0 0 Z " fill="#DBDBDB" transform="translate(437,500)"/>
<path d="M0 0 C2.97 0.99 5.94 1.98 9 3 C5 5 5 5 2.75 4.625 C2.1725 4.41875 1.595 4.2125 1 4 C0.67 4.66 0.34 5.32 0 6 C-1.125 2.25 -1.125 2.25 0 0 Z " fill="#EAEAEA" transform="translate(336,481)"/>
<path d="M0 0 C2.31 0.33 4.62 0.66 7 1 C7.33 1.99 7.66 2.98 8 4 C8.99 4.33 9.98 4.66 11 5 C10.34 5.66 9.68 6.32 9 7 C7.4972763 6.02501855 5.99788037 5.04490611 4.5 4.0625 C3.6646875 3.51722656 2.829375 2.97195313 1.96875 2.41015625 C1.3190625 1.94480469 0.669375 1.47945313 0 1 C0 0.67 0 0.34 0 0 Z " fill="#DEDEDE" transform="translate(368,453)"/>
<path d="M0 0 C0.928125 0.515625 1.85625 1.03125 2.8125 1.5625 C2.8125 2.8825 2.8125 4.2025 2.8125 5.5625 C-1.12423644 4.25025452 -3.41469294 2.64339673 -6.1875 -0.4375 C-3.1875 -1.4375 -3.1875 -1.4375 0 0 Z " fill="#DBDBDB" transform="translate(349.1875,436.4375)"/>
<path d="M0 0 C2.91517292 1.07401108 4.77810176 1.77810176 7 4 C6.625 6.125 6.625 6.125 6 8 C1.3125 4.38671875 1.3125 4.38671875 0 3 C0 2.01 0 1.02 0 0 Z " fill="#E1E1E1" transform="translate(720,416)"/>
<path d="M0 0 C1.32 0.99 2.64 1.98 4 3 C3.34 4.32 2.68 5.64 2 7 C-0.31 5.35 -2.62 3.7 -5 2 C-4.01 1.67 -3.02 1.34 -2 1 C-1.34 0.67 -0.68 0.34 0 0 Z " fill="#DBDBDB" transform="translate(295,399)"/>
<path d="M0 0 C3.40312738 1.05875074 6.01353231 2.00902154 9 4 C8.34 5.32 7.68 6.64 7 8 C5.62437146 6.71034824 4.29233607 5.37310707 3 4 C3 3.34 3 2.68 3 2 C2.01 1.67 1.02 1.34 0 1 C0 0.67 0 0.34 0 0 Z " fill="#202020" transform="translate(408,326)"/>
<path d="M0 0 C1.65 1.65 3.3 3.3 5 5 C2.525 6.485 2.525 6.485 0 8 C-1.09658936 4.71023192 -0.79953138 3.28696233 0 0 Z " fill="#141414" transform="translate(561,168)"/>
<path d="M0 0 C0 0.66 0 1.32 0 2 C-0.66 2 -1.32 2 -2 2 C-2 2.66 -2 3.32 -2 4 C-5.32534757 5.10844919 -7.62182575 4.84454356 -11 4 C-7.32740617 1.55160412 -4.45351799 0 0 0 Z " fill="#D1D1D1" transform="translate(645,788)"/>
<path d="M0 0 C3.79303725 1.00193437 6.71536341 1.81024227 10 4 C9 5 9 5 6.4375 5.0625 C5.2309375 5.0315625 5.2309375 5.0315625 4 5 C3.67 4.01 3.34 3.02 3 2 C2.01 2 1.02 2 0 2 C0 1.34 0 0.68 0 0 Z " fill="#E2E2E2" transform="translate(332,787)"/>
<path d="M0 0 C1.32 0.33 2.64 0.66 4 1 C3.34 3.64 2.68 6.28 2 9 C1.34 9 0.68 9 0 9 C0 6.03 0 3.06 0 0 Z " fill="#E2E2E2" transform="translate(192,575)"/>
<path d="M0 0 C-1.3125 2 -1.3125 2 -3 4 C-3.99 4 -4.98 4 -6 4 C-6.66 3.01 -7.32 2.02 -8 1 C-4.93251126 -0.86240388 -3.40254489 -1.2151946 0 0 Z " fill="#1D1D1D" transform="translate(594,537)"/>
<path d="M0 0 C0.66 0 1.32 0 2 0 C2 0.66 2 1.32 2 2 C3.98 2.66 5.96 3.32 8 4 C6.02 4.99 6.02 4.99 4 6 C2.02 4.68 0.04 3.36 -2 2 C-1.34 1.34 -0.68 0.68 0 0 Z " fill="#DBDBDB" transform="translate(317,416)"/>
<path d="M0 0 C0.99 0.33 1.98 0.66 3 1 C-1.625 5.875 -1.625 5.875 -5 7 C-5.33 6.01 -5.66 5.02 -6 4 C-3.1875 1.9375 -3.1875 1.9375 0 0 Z " fill="#E7E7E7" transform="translate(673,408)"/>
<path d="M0 0 C0.66 0.66 1.32 1.32 2 2 C1.34 2 0.68 2 0 2 C0 2.99 0 3.98 0 5 C-1.98 5.99 -1.98 5.99 -4 7 C-4.66 6.01 -5.32 5.02 -6 4 C-4.02 2.68 -2.04 1.36 0 0 Z " fill="#E2E2E2" transform="translate(621,406)"/>
<path d="M0 0 C0.99 0 1.98 0 3 0 C3 0.66 3 1.32 3 2 C3.66 2 4.32 2 5 2 C5 1.34 5 0.68 5 0 C6.65 0 8.3 0 10 0 C6.63576723 2.96052484 3.30840713 3.92289822 -1 5 C-0.67 3.35 -0.34 1.7 0 0 Z " fill="#CACACA" transform="translate(392,359)"/>
<path d="M0 0 C3.3 0.99 6.6 1.98 10 3 C7 5 7 5 3.8125 4.625 C2.884375 4.41875 1.95625 4.2125 1 4 C0.67 2.68 0.34 1.36 0 0 Z " fill="#EAEAEA" transform="translate(368,800)"/>
<path d="M0 0 C2.6855594 2.6855594 3.06049974 5.37621328 4 9 C2.0625 8.6875 2.0625 8.6875 0 8 C-1.09658936 4.71023192 -0.79953138 3.28696233 0 0 Z " fill="#DBDBDB" transform="translate(195,616)"/>
<path d="M0 0 C5.94 1.485 5.94 1.485 12 3 C10.02 3.99 10.02 3.99 8 5 C8 4.34 8 3.68 8 3 C6.02 3.33 4.04 3.66 2 4 C1.34 2.68 0.68 1.36 0 0 Z " fill="#252525" transform="translate(282,498)"/>
<path d="M0 0 C0.66 0.33 1.32 0.66 2 1 C1.49396008 3.16874252 1.00016187 4.99967627 0 7 C-1.32 6.34 -2.64 5.68 -4 5 C-4 4.01 -4 3.02 -4 2 C-2.125 0.9375 -2.125 0.9375 0 0 Z " fill="#E2E2E2" transform="translate(544,824)"/>
<path d="M0 0 C1.15941038 3.47823115 0.70820884 5.45895578 0 9 C-1.65 9 -3.3 9 -5 9 C-3.35 6.03 -1.7 3.06 0 0 Z " fill="#D8D8D8" transform="translate(782,621)"/>
<path d="M0 0 C0.66 0.33 1.32 0.66 2 1 C0.47005208 2.23697917 -1.05989583 3.47395833 -2.58984375 4.7109375 C-4.13266437 5.9666391 -4.13266437 5.9666391 -5 8 C-6.65 8 -8.3 8 -10 8 C-6.66666667 5.33333333 -3.33333333 2.66666667 0 0 Z " fill="#282828" transform="translate(516,518)"/>
<path d="M0 0 C1.65 0 3.3 0 5 0 C5 0.66 5 1.32 5 2 C6.32 2.66 7.64 3.32 9 4 C8.01 4.66 7.02 5.32 6 6 C3.97945196 4.35830472 1.97956942 2.69088222 0 1 C0 0.67 0 0.34 0 0 Z " fill="#D6D6D6" transform="translate(704,405)"/>
<path d="M0 0 C0.66 0.99 1.32 1.98 2 3 C0.35 4.65 -1.3 6.3 -3 8 C-3.33 7.01 -3.66 6.02 -4 5 C-2.0625 2.3125 -2.0625 2.3125 0 0 Z " fill="#EBEBEB" transform="translate(404,178)"/>
<path d="M0 0 C0.8971875 0.309375 0.8971875 0.309375 1.8125 0.625 C1.8125 1.285 1.8125 1.945 1.8125 2.625 C-1.4875 3.285 -4.7875 3.945 -8.1875 4.625 C-3.04115854 -0.52134146 -3.04115854 -0.52134146 0 0 Z " fill="#2C2C2C" transform="translate(440.1875,154.375)"/>
<path d="M0 0 C0.33 1.32 0.66 2.64 1 4 C-2.375 4.125 -2.375 4.125 -6 4 C-6.66 3.34 -7.32 2.68 -8 2 C-2.25 0 -2.25 0 0 0 Z " fill="#232323" transform="translate(458,147)"/>
<path d="M0 0 C2.31 0.66 4.62 1.32 7 2 C6.01 2.99 5.02 3.98 4 5 C2.02 4.34 0.04 3.68 -2 3 C-1.34 2.01 -0.68 1.02 0 0 Z " fill="#DCDCDC" transform="translate(459,833)"/>
<path d="M0 0 C0.99 0.99 1.98 1.98 3 3 C0.69 3.66 -1.62 4.32 -4 5 C-4.33 4.01 -4.66 3.02 -5 2 C-3.35 1.34 -1.7 0.68 0 0 Z " fill="#191919" transform="translate(703,763)"/>
<path d="M0 0 C0.66 0.33 1.32 0.66 2 1 C1.01 2.485 1.01 2.485 0 4 C0.66 4.33 1.32 4.66 2 5 C-0.31 5.33 -2.62 5.66 -5 6 C-3.63016497 2.83884224 -3.0109362 2.0072908 0 0 Z " fill="#1D1D1D" transform="translate(503,527)"/>
<path d="M0 0 C0.66 0.33 1.32 0.66 2 1 C1.67 2.32 1.34 3.64 1 5 C-1.66666667 5 -4.33333333 5 -7 5 C-4.69 3.35 -2.38 1.7 0 0 Z " fill="#D7D7D7" transform="translate(718,522)"/>
<path d="M0 0 C-0.69867187 0.27714844 -1.39734375 0.55429687 -2.1171875 0.83984375 C-3.02726563 1.20207031 -3.93734375 1.56429687 -4.875 1.9375 C-5.77992188 2.29714844 -6.68484375 2.65679688 -7.6171875 3.02734375 C-9.96137667 3.94901262 -9.96137667 3.94901262 -12 5 C-12.66 4.34 -13.32 3.68 -14 3 C-12.42274653 2.29866401 -10.83788667 1.614417 -9.25 0.9375 C-7.92742188 0.36322266 -7.92742188 0.36322266 -6.578125 -0.22265625 C-3.84743691 -1.04600008 -2.63098653 -0.9773992 0 0 Z " fill="#BFBFBF" transform="translate(737,516)"/>
<path d="M0 0 C0 0.66 0 1.32 0 2 C-4.62197306 4.21854707 -7.76824163 5.38281159 -13 5 C-10.54278328 3.36185552 -8.65432189 2.38047801 -5.9375 1.375 C-5.24527344 1.11460937 -4.55304687 0.85421875 -3.83984375 0.5859375 C-2 0 -2 0 0 0 Z " fill="#CFCFCF" transform="translate(738,447)"/>
<path d="M0 0 C2.16874252 0.50603992 3.99967627 0.99983813 6 2 C6 2.66 6 3.32 6 4 C4.35 4.33 2.7 4.66 1 5 C0.67 3.35 0.34 1.7 0 0 Z " fill="#151515" transform="translate(743,439)"/>
<path d="M0 0 C-1.04874998 2.62187494 -1.64931313 3.79371361 -4.125 5.25 C-4.74375 5.4975 -5.3625 5.745 -6 6 C-6 4.33333333 -6 2.66666667 -6 1 C-4 0 -4 0 0 0 Z " fill="#ECECEC" transform="translate(664,416)"/>
<path d="M0 0 C1.98 0 3.96 0 6 0 C6 0.99 6 1.98 6 3 C3.5 4.6875 3.5 4.6875 1 6 C0.67 4.02 0.34 2.04 0 0 Z " fill="#E4E4E4" transform="translate(681,400)"/>
<path d="M0 0 C1.65 0 3.3 0 5 0 C5.33 2.31 5.66 4.62 6 7 C1.2 4.53846154 1.2 4.53846154 0.1875 1.8125 C0.125625 1.214375 0.06375 0.61625 0 0 Z " fill="#DADADA" transform="translate(619,379)"/>
<path d="M0 0 C2.64 0.66 5.28 1.32 8 2 C5 4 5 4 2 5 C2 4.34 2 3.68 2 3 C1.34 3 0.68 3 0 3 C0 2.01 0 1.02 0 0 Z " fill="#E1E1E1" transform="translate(414,817)"/>
<path d="M0 0 C1.32 0.33 2.64 0.66 4 1 C5.16552619 5.19589427 5.08954032 5.82091936 3 10 C2.01 6.7 1.02 3.4 0 0 Z " fill="#E2E2E2" transform="translate(257,566)"/>
<path d="M0 0 C0.99 0.33 1.98 0.66 3 1 C1.70700306 3.88437779 0.34058637 5.87219421 -2 8 C-2.20086443 4.28400809 -2.1519437 3.22791555 0 0 Z " fill="#E3E3E3" transform="translate(204,556)"/>
<path d="M0 0 C1.1446875 0.495 1.1446875 0.495 2.3125 1 C4.99069135 2.17436686 4.99069135 2.17436686 8 2 C5.4345406 4.5654594 3.52313332 4.54046087 0 5 C0 3.35 0 1.7 0 0 Z " fill="#E0E0E0" transform="translate(682,498)"/>
<path d="M0 0 C0.99 0.33 1.98 0.66 3 1 C1.35 2.65 -0.3 4.3 -2 6 C-2.99 5.67 -3.98 5.34 -5 5 C-4.34 4.01 -3.68 3.02 -3 2 C-2.34 2 -1.68 2 -1 2 C-0.67 1.34 -0.34 0.68 0 0 Z " fill="#E7E7E7" transform="translate(598,459)"/>
<path d="M0 0 C3.3 0.99 6.6 1.98 10 3 C10 3.33 10 3.66 10 4 C6.7 4 3.4 4 0 4 C0 2.68 0 1.36 0 0 Z " fill="#D5D5D5" transform="translate(380,804)"/>
<path d="M0 0 C5.859375 -0.390625 5.859375 -0.390625 8 0 C9.32 1.32 10.64 2.64 12 4 C6.06 2.515 6.06 2.515 0 1 C0 0.67 0 0.34 0 0 Z " fill="#303030" transform="translate(314,780)"/>
<path d="M0 0 C0.99 0.33 1.98 0.66 3 1 C1.625 3.5 1.625 3.5 0 6 C-0.66 6 -1.32 6 -2 6 C-2 4.35 -2 2.7 -2 1 C-1.34 0.67 -0.68 0.34 0 0 Z " fill="#0F0F0F" transform="translate(251,619)"/>
<path d="M0 0 C2.35953094 2.35953094 2.49141413 3.77895617 3 7 C0.525 6.01 0.525 6.01 -2 5 C-1.34 3.35 -0.68 1.7 0 0 Z " fill="#212121" transform="translate(781,570)"/>
<path d="M0 0 C-1.125 1.5625 -1.125 1.5625 -3 3 C-6.1875 2.6875 -6.1875 2.6875 -9 2 C-4 -1.33333333 -4 -1.33333333 0 0 Z " fill="#141414" transform="translate(518,565)"/>
<path d="M0 0 C1.32 0.66 2.64 1.32 4 2 C0.79663178 4.83374881 -1.78087253 5.5205537 -6 6 C-5 4 -5 4 -2 2 C-1.34 1.34 -0.68 0.68 0 0 Z " fill="#D6D6D6" transform="translate(532,554)"/>
<path d="M0 0 C2.0625 0.6875 2.0625 0.6875 4 2 C4.75 4.125 4.75 4.125 5 6 C0.25 4.125 0.25 4.125 -2 3 C-2 2.34 -2 1.68 -2 1 C-1.34 0.67 -0.68 0.34 0 0 Z " fill="#DEDEDE" transform="translate(242,547)"/>
<path d="M0 0 C2.625 0.9375 2.625 0.9375 5 2 C2.33333333 3.33333333 -0.33333333 4.66666667 -3 6 C-2.625 3.5625 -2.625 3.5625 -2 1 C-1.34 0.67 -0.68 0.34 0 0 Z " fill="#E0E0E0" transform="translate(218,546)"/>
<path d="M0 0 C1.65 1.65 3.3 3.3 5 5 C4.34 5 3.68 5 3 5 C2.67 5.66 2.34 6.32 2 7 C2 6.34 2 5.68 2 5 C1.34 5 0.68 5 0 5 C-0.5625 3.0625 -0.5625 3.0625 -1 1 C-0.67 0.67 -0.34 0.34 0 0 Z " fill="#E4E4E4" transform="translate(274,533)"/>
<path d="M0 0 C2.31 0.66 4.62 1.32 7 2 C5 4 5 4 2.375 4.125 C1.59125 4.08375 0.8075 4.0425 0 4 C-0.33 3.34 -0.66 2.68 -1 2 C-0.67 1.34 -0.34 0.68 0 0 Z " fill="#EEEEEE" transform="translate(450,523)"/>
<path d="M0 0 C0.33 0.66 0.66 1.32 1 2 C-3.296875 6.00390625 -3.296875 6.00390625 -5 7 C-6.32 6.67 -7.64 6.34 -9 6 C-6.03 4.02 -3.06 2.04 0 0 Z " fill="#2A2A2A" transform="translate(603,459)"/>
<path d="M0 0 C4.55384615 -0.36923077 4.55384615 -0.36923077 6.8125 1.5 C7.204375 1.995 7.59625 2.49 8 3 C5.69 3.33 3.38 3.66 1 4 C0.67 2.68 0.34 1.36 0 0 Z " fill="#131313" transform="translate(347,442)"/>
<path d="M0 0 C0.66 0.33 1.32 0.66 2 1 C-0.625 5.875 -0.625 5.875 -4 7 C-4.66 6.34 -5.32 5.68 -6 5 C-4.02 3.35 -2.04 1.7 0 0 Z " fill="#CFCFCF" transform="translate(574,437)"/>
<path d="M0 0 C2.3125 0.1875 2.3125 0.1875 4 1 C3.01 1.66 2.02 2.32 1 3 C-0.01868662 3.98095748 -1.02351983 4.97702078 -2 6 C-2.99 5.67 -3.98 5.34 -5 5 C-2.75 2.4375 -2.75 2.4375 0 0 Z " fill="#242424" transform="translate(692,398)"/>
<path d="M0 0 C2.2477975 2.05233685 3.0022242 3.00667261 4 6 C3.01 6.33 2.02 6.66 1 7 C1 6.34 1 5.68 1 5 C0.34 5 -0.32 5 -1 5 C-0.67 3.35 -0.34 1.7 0 0 Z " fill="#E2E2E2" transform="translate(393,306)"/>
<path d="M0 0 C0.33 0 0.66 0 1 0 C1 2.97 1 5.94 1 9 C-0.98 9.99 -0.98 9.99 -3 11 C-2.01 7.37 -1.02 3.74 0 0 Z " fill="#2B2B2B" transform="translate(387,211)"/>
<path d="M0 0 C0.66 0.33 1.32 0.66 2 1 C0.92598892 3.91517292 0.22189824 5.77810176 -2 8 C-2.625 6.1875 -2.625 6.1875 -3 4 C-1 1 -1 1 0 0 Z " fill="#E7E7E7" transform="translate(395,191)"/>
<path d="M0 0 C3.14624993 -0.26218749 4.61837017 -0.24754367 7.3125 1.5 C8.1478125 2.2425 8.1478125 2.2425 9 3 C6.75 3.75 6.75 3.75 4 4 C1.6875 2.0625 1.6875 2.0625 0 0 Z " fill="#1B1B1B" transform="translate(520,147)"/>
<path d="M0 0 C1.32 0.33 2.64 0.66 4 1 C4.33 2.32 4.66 3.64 5 5 C2.69 4.34 0.38 3.68 -2 3 C-1.34 2.01 -0.68 1.02 0 0 Z " fill="#2E2E2E" transform="translate(410,812)"/>
<path d="M0 0 C2.40072955 2.88087546 4.47291037 5.56404834 6 9 C3.525 8.01 3.525 8.01 1 7 C1 6.01 1 5.02 1 4 C0.34 3.34 -0.32 2.68 -1 2 C-0.67 1.34 -0.34 0.68 0 0 Z " fill="#383838" transform="translate(697,638)"/>
<path d="M0 0 C0.66 0 1.32 0 2 0 C2 0.66 2 1.32 2 2 C2.804375 2.12375 3.60875 2.2475 4.4375 2.375 C5.7059375 2.684375 5.7059375 2.684375 7 3 C7.33 3.66 7.66 4.32 8 5 C4.7 4.01 1.4 3.02 -2 2 C-1.34 1.34 -0.68 0.68 0 0 Z " fill="#2C2C2C" transform="translate(427,512)"/>
<path d="M0 0 C1.2065625 0.0309375 1.2065625 0.0309375 2.4375 0.0625 C2.7675 1.0525 3.0975 2.0425 3.4375 3.0625 C1.625 3.75 1.625 3.75 -0.5625 4.0625 C-2.3125 2.625 -2.3125 2.625 -3.5625 1.0625 C-2.5625 0.0625 -2.5625 0.0625 0 0 Z " fill="#1B1B1B" transform="translate(487.5625,489.9375)"/>
<path d="M0 0 C1.2065625 0.0309375 1.2065625 0.0309375 2.4375 0.0625 C2.7675 0.7225 3.0975 1.3825 3.4375 2.0625 C2.4475 3.5475 2.4475 3.5475 1.4375 5.0625 C-0.2125 3.7425 -1.8625 2.4225 -3.5625 1.0625 C-2.5625 0.0625 -2.5625 0.0625 0 0 Z " fill="#1D1D1D" transform="translate(450.5625,464.9375)"/>
<path d="M0 0 C2 1.3125 2 1.3125 4 3 C4 3.99 4 4.98 4 6 C-0.875 4.25 -0.875 4.25 -2 2 C-1.34 2 -0.68 2 0 2 C0 1.34 0 0.68 0 0 Z " fill="#2B2B2B" transform="translate(427,449)"/>
<path d="M0 0 C-0.33 0.99 -0.66 1.98 -1 3 C-2.65 3 -4.3 3 -6 3 C-6.33 2.01 -6.66 1.02 -7 0 C-4.3333581 -1.33332095 -2.83319697 -0.67102033 0 0 Z " fill="#F7F7F7" transform="translate(485,139)"/>
<path d="M0 0 C0.99 0 1.98 0 3 0 C3 1.32 3 2.64 3 4 C1.35 4.33 -0.3 4.66 -2 5 C-2 4.01 -2 3.02 -2 2 C-1.34 2 -0.68 2 0 2 C0 1.34 0 0.68 0 0 Z " fill="#0B0B0B" transform="translate(510,832)"/>
<path d="M0 0 C2.9375 0.8125 2.9375 0.8125 6 2 C6.33 2.99 6.66 3.98 7 5 C4.69 4.34 2.38 3.68 0 3 C0 2.01 0 1.02 0 0 Z " fill="#262626" transform="translate(397,808)"/>
<path d="M0 0 C0.33 1.32 0.66 2.64 1 4 C-1.64 3.34 -4.28 2.68 -7 2 C-4 0 -4 0 0 0 Z " fill="#232323" transform="translate(357,792)"/>
<path d="M0 0 C2.31 0.33 4.62 0.66 7 1 C5.3125 2.5625 5.3125 2.5625 3 4 C0.25 3.6875 0.25 3.6875 -2 3 C-1.34 2.01 -0.68 1.02 0 0 Z " fill="#EAEAEA" transform="translate(247,665)"/>
<path d="M0 0 C0 1.32 0 2.64 0 4 C-1.98 4 -3.96 4 -6 4 C-6 3.34 -6 2.68 -6 2 C-2.25 0 -2.25 0 0 0 Z " fill="#D7D7D7" transform="translate(768,637)"/>
<path d="M0 0 C1.65 0.33 3.3 0.66 5 1 C4.34 2.65 3.68 4.3 3 6 C1.68 4.68 0.36 3.36 -1 2 C-0.67 1.34 -0.34 0.68 0 0 Z " fill="#141414" transform="translate(201,624)"/>
<path d="M0 0 C0.99 0.33 1.98 0.66 3 1 C3 1.66 3 2.32 3 3 C3.99 2.67 4.98 2.34 6 2 C6.99 3.485 6.99 3.485 8 5 C6.72125 4.71125 5.4425 4.4225 4.125 4.125 C3.40570313 3.96257813 2.68640625 3.80015625 1.9453125 3.6328125 C0 3 0 3 -2 1 C-1.34 0.67 -0.68 0.34 0 0 Z " fill="#CACACA" transform="translate(402,539)"/>
<path d="M0 0 C2 1 2 1 3 3 C-0.93670488 4.31223496 -3.12488144 3.24296256 -7 2 C-6.401875 1.855625 -5.80375 1.71125 -5.1875 1.5625 C-3.43849596 1.1127561 -1.71322977 0.57107659 0 0 Z " fill="#D6D6D6" transform="translate(291,497)"/>
<path d="M0 0 C-0.66 1.65 -1.32 3.3 -2 5 C-4.475 4.01 -4.475 4.01 -7 3 C-4.74624683 0.74624683 -3.20799182 0 0 0 Z " fill="#CFCFCF" transform="translate(666,473)"/>
<path d="M0 0 C-0.33 0.99 -0.66 1.98 -1 3 C-3.64 2.67 -6.28 2.34 -9 2 C-3.42857143 -1.71428571 -3.42857143 -1.71428571 0 0 Z " fill="#D3D3D3" transform="translate(692,465)"/>
<path d="M0 0 C0.99 0.33 1.98 0.66 3 1 C1.68 2.32 0.36 3.64 -1 5 C-1.99 4.34 -2.98 3.68 -4 3 C-2.1875 1.4375 -2.1875 1.4375 0 0 Z " fill="#DCDCDC" transform="translate(566,443)"/>
<path d="M0 0 C0.66 0.66 1.32 1.32 2 2 C1.34 2 0.68 2 0 2 C0 2.66 0 3.32 0 4 C-0.66 4 -1.32 4 -2 4 C-2.33 4.66 -2.66 5.32 -3 6 C-3.66 5.01 -4.32 4.02 -5 3 C-3.35 2.01 -1.7 1.02 0 0 Z " fill="#212121" transform="translate(671,413)"/>
<path d="M0 0 C1.65 0.99 3.3 1.98 5 3 C4.67 3.66 4.34 4.32 4 5 C2.35 5 0.7 5 -1 5 C-0.67 3.35 -0.34 1.7 0 0 Z " fill="#EDEDED" transform="translate(361,408)"/>
<path d="M0 0 C1 3 1 3 1 6 C-0.32 5.34 -1.64 4.68 -3 4 C-3 3.01 -3 2.02 -3 1 C-2.01 0.67 -1.02 0.34 0 0 Z " fill="#1E1E1E" transform="translate(348,393)"/>
<path d="M0 0 C2.625 1.4375 2.625 1.4375 5 3 C4.01 4.485 4.01 4.485 3 6 C1.35 4.35 -0.3 2.7 -2 1 C-1.34 0.67 -0.68 0.34 0 0 Z " fill="#D5D5D5" transform="translate(627,385)"/>
<path d="M0 0 C0.66 0.33 1.32 0.66 2 1 C1.34 2.65 0.68 4.3 0 6 C-1.32 5.34 -2.64 4.68 -4 4 C-2.68 2.68 -1.36 1.36 0 0 Z " fill="#2D2D2D" transform="translate(420,166)"/>
</svg>
